<mxfile host="Electron" modified="2023-11-24T06:00:29.266Z" agent="Mozilla/5.0 (X11; Linux x86_64) AppleWebKit/537.36 (KHTML, like Gecko) draw.io/21.5.1 Chrome/112.0.5615.204 Electron/24.6.0 Safari/537.36" etag="BoGb5zSvB0rULzIIyZ1n" version="21.5.1" type="device">
  <diagram name="Page-1" id="e7e014a7-5840-1c2e-5031-d8a46d1fe8dd">
    <mxGraphModel dx="2535" dy="803" grid="1" gridSize="10" guides="1" tooltips="1" connect="1" arrows="1" fold="1" page="1" pageScale="1" pageWidth="1169" pageHeight="826" background="none" math="0" shadow="0">
      <root>
        <mxCell id="0" />
        <mxCell id="1" parent="0" />
        <mxCell id="2" value="RF MCU A - Robot" style="swimlane;whiteSpace=wrap" parent="1" vertex="1">
          <mxGeometry x="-1140" y="30" width="524.5" height="1162" as="geometry" />
        </mxCell>
        <mxCell id="5" value="" style="ellipse;shape=startState;fillColor=#000000;strokeColor=#ff0000;" parent="2" vertex="1">
          <mxGeometry x="139" y="40" width="30" height="30" as="geometry" />
        </mxCell>
        <mxCell id="6" value="" style="edgeStyle=elbowEdgeStyle;elbow=horizontal;verticalAlign=bottom;endArrow=open;endSize=8;strokeColor=#FF0000;endFill=1;rounded=0" parent="2" source="5" target="7" edge="1">
          <mxGeometry x="100" y="40" as="geometry">
            <mxPoint x="154" y="110" as="targetPoint" />
          </mxGeometry>
        </mxCell>
        <mxCell id="7" value="idle" style="" parent="2" vertex="1">
          <mxGeometry x="99" y="110" width="110" height="50" as="geometry" />
        </mxCell>
        <mxCell id="9" value="" style="endArrow=open;strokeColor=#FF0000;endFill=1;rounded=0;entryX=0.5;entryY=0;entryDx=0;entryDy=0;exitX=0.5;exitY=1;exitDx=0;exitDy=0;" parent="2" source="7" target="hm0Lq8a4BP33cIntfqXl-41" edge="1">
          <mxGeometry relative="1" as="geometry">
            <mxPoint x="154" y="192" as="targetPoint" />
          </mxGeometry>
        </mxCell>
        <mxCell id="hm0Lq8a4BP33cIntfqXl-45" style="edgeStyle=orthogonalEdgeStyle;rounded=0;orthogonalLoop=1;jettySize=auto;html=1;entryX=0.75;entryY=0.5;entryDx=0;entryDy=0;fontColor=default;fillColor=#e51400;strokeColor=#FF0000;endArrow=open;endFill=1;exitX=1;exitY=0.5;exitDx=0;exitDy=0;entryPerimeter=0;" edge="1" parent="2" source="hm0Lq8a4BP33cIntfqXl-53" target="hm0Lq8a4BP33cIntfqXl-90">
          <mxGeometry relative="1" as="geometry">
            <mxPoint x="209" y="327" as="sourcePoint" />
          </mxGeometry>
        </mxCell>
        <mxCell id="hm0Lq8a4BP33cIntfqXl-50" value="" style="edgeStyle=orthogonalEdgeStyle;shape=connector;rounded=0;orthogonalLoop=1;jettySize=auto;html=1;labelBackgroundColor=default;strokeColor=#FF0000;fontFamily=Helvetica;fontSize=11;fontColor=default;endArrow=open;endFill=1;fillColor=#e51400;exitX=0.5;exitY=1;exitDx=0;exitDy=0;" edge="1" parent="2" source="hm0Lq8a4BP33cIntfqXl-53" target="hm0Lq8a4BP33cIntfqXl-49">
          <mxGeometry relative="1" as="geometry">
            <mxPoint x="154" y="352" as="sourcePoint" />
          </mxGeometry>
        </mxCell>
        <mxCell id="11" value="" style="endArrow=open;strokeColor=#FF0000;endFill=1;rounded=0;exitX=0.5;exitY=1;exitDx=0;exitDy=0;entryX=0.5;entryY=0;entryDx=0;entryDy=0;" parent="2" source="hm0Lq8a4BP33cIntfqXl-41" target="hm0Lq8a4BP33cIntfqXl-53" edge="1">
          <mxGeometry relative="1" as="geometry">
            <mxPoint x="169" y="302" as="sourcePoint" />
            <mxPoint x="154" y="302" as="targetPoint" />
          </mxGeometry>
        </mxCell>
        <mxCell id="12" value="" style="edgeStyle=elbowEdgeStyle;elbow=horizontal;strokeColor=#FF0000;endArrow=open;endFill=1;rounded=0;exitX=0;exitY=0.5;exitDx=0;exitDy=0;" parent="2" source="hm0Lq8a4BP33cIntfqXl-41" target="7" edge="1">
          <mxGeometry width="100" height="100" relative="1" as="geometry">
            <mxPoint x="199" y="290" as="sourcePoint" />
            <mxPoint x="299" y="190" as="targetPoint" />
            <Array as="points">
              <mxPoint x="69" y="250" />
            </Array>
          </mxGeometry>
        </mxCell>
        <mxCell id="hm0Lq8a4BP33cIntfqXl-41" value="Charging Requested ?" style="rhombus;whiteSpace=wrap;html=1;fontSize=10;" vertex="1" parent="2">
          <mxGeometry x="114" y="182" width="80" height="80" as="geometry" />
        </mxCell>
        <mxCell id="hm0Lq8a4BP33cIntfqXl-42" value="No" style="text;html=1;strokeColor=none;fillColor=none;align=center;verticalAlign=middle;whiteSpace=wrap;rounded=0;" vertex="1" parent="2">
          <mxGeometry x="59" y="192" width="60" height="30" as="geometry" />
        </mxCell>
        <mxCell id="hm0Lq8a4BP33cIntfqXl-43" value="Yes" style="text;html=1;strokeColor=none;fillColor=none;align=center;verticalAlign=middle;whiteSpace=wrap;rounded=0;" vertex="1" parent="2">
          <mxGeometry x="139" y="262" width="60" height="30" as="geometry" />
        </mxCell>
        <mxCell id="hm0Lq8a4BP33cIntfqXl-44" value="" style="image;html=1;image=img/lib/clip_art/telecommunication/Signal_tower_on_128x128.png" vertex="1" parent="2">
          <mxGeometry x="359" y="192" width="80" height="80" as="geometry" />
        </mxCell>
        <mxCell id="hm0Lq8a4BP33cIntfqXl-46" value="802.15.4: 868/915/2450 MHz" style="text;html=1;strokeColor=none;fillColor=none;align=center;verticalAlign=middle;whiteSpace=wrap;rounded=0;fontSize=11;fontFamily=Helvetica;fontColor=default;" vertex="1" parent="2">
          <mxGeometry x="359" y="152" width="60" height="30" as="geometry" />
        </mxCell>
        <mxCell id="hm0Lq8a4BP33cIntfqXl-51" style="edgeStyle=orthogonalEdgeStyle;shape=connector;rounded=0;orthogonalLoop=1;jettySize=auto;html=1;entryX=0;entryY=0.5;entryDx=0;entryDy=0;labelBackgroundColor=default;strokeColor=#FF0000;fontFamily=Helvetica;fontSize=11;fontColor=default;endArrow=open;endFill=1;fillColor=#e51400;" edge="1" parent="2" source="hm0Lq8a4BP33cIntfqXl-49" target="hm0Lq8a4BP33cIntfqXl-53">
          <mxGeometry relative="1" as="geometry">
            <mxPoint x="98.12" y="333.1500000000001" as="targetPoint" />
            <Array as="points">
              <mxPoint x="79" y="422" />
              <mxPoint x="79" y="328" />
            </Array>
          </mxGeometry>
        </mxCell>
        <mxCell id="hm0Lq8a4BP33cIntfqXl-59" value="" style="edgeStyle=orthogonalEdgeStyle;shape=connector;rounded=0;orthogonalLoop=1;jettySize=auto;html=1;labelBackgroundColor=default;strokeColor=#FF0000;fontFamily=Helvetica;fontSize=11;fontColor=default;endArrow=open;endFill=1;fillColor=#e51400;" edge="1" parent="2" source="hm0Lq8a4BP33cIntfqXl-49" target="hm0Lq8a4BP33cIntfqXl-58">
          <mxGeometry relative="1" as="geometry" />
        </mxCell>
        <mxCell id="hm0Lq8a4BP33cIntfqXl-49" value="Got the unoccupied station ?" style="rhombus;whiteSpace=wrap;html=1;" vertex="1" parent="2">
          <mxGeometry x="114" y="382" width="80" height="80" as="geometry" />
        </mxCell>
        <mxCell id="hm0Lq8a4BP33cIntfqXl-52" value="No" style="text;html=1;strokeColor=none;fillColor=none;align=center;verticalAlign=middle;whiteSpace=wrap;rounded=0;" vertex="1" parent="2">
          <mxGeometry x="69" y="392" width="60" height="30" as="geometry" />
        </mxCell>
        <mxCell id="hm0Lq8a4BP33cIntfqXl-53" value="Broadcast" style="shape=parallelogram;perimeter=parallelogramPerimeter;whiteSpace=wrap;html=1;fixedSize=1;fontFamily=Helvetica;fontSize=11;fontColor=default;" vertex="1" parent="2">
          <mxGeometry x="109" y="312" width="90" height="32" as="geometry" />
        </mxCell>
        <mxCell id="hm0Lq8a4BP33cIntfqXl-62" value="" style="edgeStyle=orthogonalEdgeStyle;shape=connector;rounded=0;orthogonalLoop=1;jettySize=auto;html=1;labelBackgroundColor=default;strokeColor=#FF0000;fontFamily=Helvetica;fontSize=11;fontColor=default;endArrow=open;endFill=1;fillColor=#e51400;" edge="1" parent="2" source="hm0Lq8a4BP33cIntfqXl-58" target="hm0Lq8a4BP33cIntfqXl-61">
          <mxGeometry relative="1" as="geometry" />
        </mxCell>
        <mxCell id="hm0Lq8a4BP33cIntfqXl-93" style="edgeStyle=orthogonalEdgeStyle;shape=connector;rounded=0;orthogonalLoop=1;jettySize=auto;html=1;entryX=0.5;entryY=1;entryDx=0;entryDy=0;labelBackgroundColor=default;strokeColor=#000000;fontFamily=Helvetica;fontSize=11;fontColor=default;endArrow=none;endFill=0;fillColor=#e51400;dashed=1;" edge="1" parent="2" source="hm0Lq8a4BP33cIntfqXl-58" target="hm0Lq8a4BP33cIntfqXl-92">
          <mxGeometry relative="1" as="geometry">
            <Array as="points">
              <mxPoint x="300" y="516" />
              <mxPoint x="300" y="502" />
            </Array>
          </mxGeometry>
        </mxCell>
        <mxCell id="hm0Lq8a4BP33cIntfqXl-58" value="Move to charging station" style="whiteSpace=wrap;html=1;" vertex="1" parent="2">
          <mxGeometry x="106.5" y="492" width="95" height="48" as="geometry" />
        </mxCell>
        <mxCell id="hm0Lq8a4BP33cIntfqXl-60" value="Yes" style="text;html=1;strokeColor=none;fillColor=none;align=center;verticalAlign=middle;whiteSpace=wrap;rounded=0;" vertex="1" parent="2">
          <mxGeometry x="139" y="462" width="60" height="30" as="geometry" />
        </mxCell>
        <mxCell id="hm0Lq8a4BP33cIntfqXl-64" value="" style="edgeStyle=orthogonalEdgeStyle;shape=connector;rounded=0;orthogonalLoop=1;jettySize=auto;html=1;labelBackgroundColor=default;strokeColor=#FF0000;fontFamily=Helvetica;fontSize=11;fontColor=default;endArrow=open;endFill=1;fillColor=#e51400;" edge="1" parent="2" source="hm0Lq8a4BP33cIntfqXl-61" target="hm0Lq8a4BP33cIntfqXl-63">
          <mxGeometry relative="1" as="geometry" />
        </mxCell>
        <mxCell id="hm0Lq8a4BP33cIntfqXl-67" style="edgeStyle=orthogonalEdgeStyle;shape=connector;rounded=0;orthogonalLoop=1;jettySize=auto;html=1;labelBackgroundColor=default;strokeColor=#FF0000;fontFamily=Helvetica;fontSize=11;fontColor=default;endArrow=open;endFill=1;fillColor=#e51400;entryX=0.517;entryY=0.426;entryDx=0;entryDy=0;entryPerimeter=0;startArrow=open;startFill=0;" edge="1" parent="2" source="hm0Lq8a4BP33cIntfqXl-61" target="hm0Lq8a4BP33cIntfqXl-90">
          <mxGeometry relative="1" as="geometry">
            <mxPoint x="400" y="302" as="targetPoint" />
          </mxGeometry>
        </mxCell>
        <mxCell id="hm0Lq8a4BP33cIntfqXl-61" value="Establish and Handshake" style="shape=parallelogram;perimeter=parallelogramPerimeter;whiteSpace=wrap;html=1;fixedSize=1;" vertex="1" parent="2">
          <mxGeometry x="94" y="572" width="120" height="60" as="geometry" />
        </mxCell>
        <mxCell id="hm0Lq8a4BP33cIntfqXl-65" style="edgeStyle=orthogonalEdgeStyle;shape=connector;rounded=0;orthogonalLoop=1;jettySize=auto;html=1;entryX=0;entryY=0.75;entryDx=0;entryDy=0;labelBackgroundColor=default;strokeColor=#FF0000;fontFamily=Helvetica;fontSize=11;fontColor=default;endArrow=open;endFill=1;fillColor=#e51400;" edge="1" parent="2" source="hm0Lq8a4BP33cIntfqXl-63" target="hm0Lq8a4BP33cIntfqXl-53">
          <mxGeometry relative="1" as="geometry">
            <Array as="points">
              <mxPoint x="59" y="702" />
              <mxPoint x="59" y="335" />
            </Array>
          </mxGeometry>
        </mxCell>
        <mxCell id="hm0Lq8a4BP33cIntfqXl-70" value="" style="edgeStyle=orthogonalEdgeStyle;shape=connector;rounded=0;orthogonalLoop=1;jettySize=auto;html=1;labelBackgroundColor=default;strokeColor=#FF0000;fontFamily=Helvetica;fontSize=11;fontColor=default;endArrow=open;endFill=1;fillColor=#e51400;" edge="1" parent="2" source="hm0Lq8a4BP33cIntfqXl-63" target="hm0Lq8a4BP33cIntfqXl-69">
          <mxGeometry relative="1" as="geometry" />
        </mxCell>
        <mxCell id="hm0Lq8a4BP33cIntfqXl-63" value="Confirm ?" style="rhombus;whiteSpace=wrap;html=1;" vertex="1" parent="2">
          <mxGeometry x="114" y="662" width="80" height="80" as="geometry" />
        </mxCell>
        <mxCell id="hm0Lq8a4BP33cIntfqXl-66" value="No" style="text;html=1;strokeColor=none;fillColor=none;align=center;verticalAlign=middle;whiteSpace=wrap;rounded=0;" vertex="1" parent="2">
          <mxGeometry x="54" y="668" width="60" height="30" as="geometry" />
        </mxCell>
        <mxCell id="hm0Lq8a4BP33cIntfqXl-68" value="Handshake Message" style="text;html=1;strokeColor=none;fillColor=none;align=center;verticalAlign=middle;whiteSpace=wrap;rounded=0;fontSize=11;fontFamily=Helvetica;fontColor=default;" vertex="1" parent="2">
          <mxGeometry x="259" y="562" width="60" height="30" as="geometry" />
        </mxCell>
        <mxCell id="hm0Lq8a4BP33cIntfqXl-72" style="edgeStyle=orthogonalEdgeStyle;shape=connector;rounded=0;orthogonalLoop=1;jettySize=auto;html=1;labelBackgroundColor=default;strokeColor=#FF0000;fontFamily=Helvetica;fontSize=11;fontColor=default;endArrow=open;endFill=1;fillColor=#e51400;entryX=0.25;entryY=0.5;entryDx=0;entryDy=0;entryPerimeter=0;" edge="1" parent="2" source="hm0Lq8a4BP33cIntfqXl-69" target="hm0Lq8a4BP33cIntfqXl-90">
          <mxGeometry relative="1" as="geometry">
            <mxPoint x="399" y="271.1666666666667" as="targetPoint" />
          </mxGeometry>
        </mxCell>
        <mxCell id="hm0Lq8a4BP33cIntfqXl-74" value="" style="edgeStyle=orthogonalEdgeStyle;shape=connector;rounded=0;orthogonalLoop=1;jettySize=auto;html=1;labelBackgroundColor=default;strokeColor=#FF0000;fontFamily=Helvetica;fontSize=11;fontColor=default;endArrow=open;endFill=1;fillColor=#e51400;" edge="1" parent="2" source="hm0Lq8a4BP33cIntfqXl-69" target="hm0Lq8a4BP33cIntfqXl-73">
          <mxGeometry relative="1" as="geometry" />
        </mxCell>
        <mxCell id="hm0Lq8a4BP33cIntfqXl-69" value="Real-time message" style="shape=parallelogram;perimeter=parallelogramPerimeter;whiteSpace=wrap;html=1;fixedSize=1;" vertex="1" parent="2">
          <mxGeometry x="94" y="772" width="120" height="60" as="geometry" />
        </mxCell>
        <mxCell id="hm0Lq8a4BP33cIntfqXl-71" value="Yes" style="text;html=1;strokeColor=none;fillColor=none;align=center;verticalAlign=middle;whiteSpace=wrap;rounded=0;" vertex="1" parent="2">
          <mxGeometry x="139" y="742" width="60" height="30" as="geometry" />
        </mxCell>
        <mxCell id="hm0Lq8a4BP33cIntfqXl-75" style="edgeStyle=orthogonalEdgeStyle;shape=connector;rounded=0;orthogonalLoop=1;jettySize=auto;html=1;entryX=0;entryY=0.5;entryDx=0;entryDy=0;labelBackgroundColor=default;strokeColor=#FF0000;fontFamily=Helvetica;fontSize=11;fontColor=default;endArrow=open;endFill=1;fillColor=#e51400;" edge="1" parent="2" source="hm0Lq8a4BP33cIntfqXl-73" target="hm0Lq8a4BP33cIntfqXl-69">
          <mxGeometry relative="1" as="geometry">
            <Array as="points">
              <mxPoint x="79" y="926" />
              <mxPoint x="79" y="802" />
            </Array>
          </mxGeometry>
        </mxCell>
        <mxCell id="hm0Lq8a4BP33cIntfqXl-78" value="" style="edgeStyle=orthogonalEdgeStyle;shape=connector;rounded=0;orthogonalLoop=1;jettySize=auto;html=1;labelBackgroundColor=default;strokeColor=#FF0000;fontFamily=Helvetica;fontSize=11;fontColor=default;endArrow=open;endFill=1;fillColor=#e51400;" edge="1" parent="2" source="hm0Lq8a4BP33cIntfqXl-73" target="hm0Lq8a4BP33cIntfqXl-77">
          <mxGeometry relative="1" as="geometry" />
        </mxCell>
        <mxCell id="hm0Lq8a4BP33cIntfqXl-87" value="" style="edgeStyle=orthogonalEdgeStyle;shape=connector;rounded=0;orthogonalLoop=1;jettySize=auto;html=1;labelBackgroundColor=default;strokeColor=#FF0000;fontFamily=Helvetica;fontSize=11;fontColor=default;endArrow=open;endFill=1;fillColor=#e51400;" edge="1" parent="2" source="hm0Lq8a4BP33cIntfqXl-73" target="hm0Lq8a4BP33cIntfqXl-86">
          <mxGeometry relative="1" as="geometry" />
        </mxCell>
        <mxCell id="hm0Lq8a4BP33cIntfqXl-73" value="Battery not Full?&lt;br&gt;and&lt;br&gt;&amp;lt; 100 ms?" style="rhombus;whiteSpace=wrap;html=1;" vertex="1" parent="2">
          <mxGeometry x="84" y="862" width="140" height="128" as="geometry" />
        </mxCell>
        <mxCell id="hm0Lq8a4BP33cIntfqXl-76" value="Yes" style="text;html=1;strokeColor=none;fillColor=none;align=center;verticalAlign=middle;whiteSpace=wrap;rounded=0;" vertex="1" parent="2">
          <mxGeometry x="69" y="852" width="60" height="28" as="geometry" />
        </mxCell>
        <mxCell id="hm0Lq8a4BP33cIntfqXl-85" style="edgeStyle=orthogonalEdgeStyle;shape=connector;rounded=0;orthogonalLoop=1;jettySize=auto;html=1;entryX=1;entryY=0.5;entryDx=0;entryDy=0;labelBackgroundColor=default;strokeColor=#FF0000;fontFamily=Helvetica;fontSize=11;fontColor=default;endArrow=open;endFill=1;fillColor=#e51400;" edge="1" parent="2" source="hm0Lq8a4BP33cIntfqXl-77" target="7">
          <mxGeometry relative="1" as="geometry">
            <Array as="points">
              <mxPoint x="509" y="926" />
              <mxPoint x="509" y="135" />
            </Array>
          </mxGeometry>
        </mxCell>
        <mxCell id="hm0Lq8a4BP33cIntfqXl-77" value="End of session" style="whiteSpace=wrap;html=1;" vertex="1" parent="2">
          <mxGeometry x="314" y="896" width="120" height="60" as="geometry" />
        </mxCell>
        <mxCell id="hm0Lq8a4BP33cIntfqXl-79" value="Battery Full" style="text;html=1;strokeColor=none;fillColor=none;align=center;verticalAlign=middle;whiteSpace=wrap;rounded=0;fontSize=11;fontFamily=Helvetica;fontColor=default;" vertex="1" parent="2">
          <mxGeometry x="229" y="896" width="60" height="30" as="geometry" />
        </mxCell>
        <mxCell id="hm0Lq8a4BP33cIntfqXl-89" style="edgeStyle=orthogonalEdgeStyle;shape=connector;rounded=0;orthogonalLoop=1;jettySize=auto;html=1;entryX=0;entryY=0;entryDx=0;entryDy=0;labelBackgroundColor=default;strokeColor=#FF0000;fontFamily=Helvetica;fontSize=11;fontColor=default;endArrow=open;endFill=1;fillColor=#e51400;" edge="1" parent="2" source="hm0Lq8a4BP33cIntfqXl-86" target="hm0Lq8a4BP33cIntfqXl-53">
          <mxGeometry relative="1" as="geometry">
            <Array as="points">
              <mxPoint x="27" y="1062" />
              <mxPoint x="27" y="318" />
            </Array>
          </mxGeometry>
        </mxCell>
        <mxCell id="hm0Lq8a4BP33cIntfqXl-86" value="Error. End of session" style="whiteSpace=wrap;html=1;" vertex="1" parent="2">
          <mxGeometry x="94" y="1032" width="120" height="60" as="geometry" />
        </mxCell>
        <mxCell id="hm0Lq8a4BP33cIntfqXl-88" value="&amp;lt; 100 ms" style="text;html=1;strokeColor=none;fillColor=none;align=center;verticalAlign=middle;whiteSpace=wrap;rounded=0;fontSize=11;fontFamily=Helvetica;fontColor=default;" vertex="1" parent="2">
          <mxGeometry x="164" y="992" width="60" height="30" as="geometry" />
        </mxCell>
        <mxCell id="hm0Lq8a4BP33cIntfqXl-91" style="edgeStyle=orthogonalEdgeStyle;shape=connector;rounded=0;orthogonalLoop=1;jettySize=auto;html=1;entryX=0.531;entryY=1;entryDx=0;entryDy=0;entryPerimeter=0;labelBackgroundColor=default;strokeColor=#FF0000;fontFamily=Helvetica;fontSize=11;fontColor=default;endArrow=open;endFill=1;fillColor=#e51400;exitX=0.512;exitY=0.515;exitDx=0;exitDy=0;exitPerimeter=0;startArrow=open;startFill=0;" edge="1" parent="2" source="hm0Lq8a4BP33cIntfqXl-90" target="hm0Lq8a4BP33cIntfqXl-44">
          <mxGeometry relative="1" as="geometry" />
        </mxCell>
        <mxCell id="hm0Lq8a4BP33cIntfqXl-90" value="" style="shape=line;strokeWidth=6;strokeColor=#ff0000;rotation=90;direction=south;" vertex="1" parent="2">
          <mxGeometry x="394" y="272" width="15" height="50" as="geometry" />
        </mxCell>
        <mxCell id="hm0Lq8a4BP33cIntfqXl-92" value="&lt;h1&gt;Move to Station&lt;/h1&gt;&lt;p&gt;Robots can use the signal strength from the Received Signal Strength Indicator (RSSI) to allocate and align with the charging station&lt;/p&gt;" style="text;html=1;strokeColor=default;fillColor=none;spacing=5;spacingTop=-20;whiteSpace=wrap;overflow=hidden;rounded=0;fontSize=11;fontFamily=Helvetica;fontColor=default;" vertex="1" parent="2">
          <mxGeometry x="209" y="390" width="181" height="112" as="geometry" />
        </mxCell>
        <mxCell id="hm0Lq8a4BP33cIntfqXl-117" value="RF MCU B - Charging Station" style="swimlane;whiteSpace=wrap" vertex="1" parent="1">
          <mxGeometry x="-615.5" y="30" width="635.5" height="1162" as="geometry" />
        </mxCell>
        <mxCell id="hm0Lq8a4BP33cIntfqXl-118" value="" style="ellipse;shape=startState;fillColor=#000000;strokeColor=#ff0000;" vertex="1" parent="hm0Lq8a4BP33cIntfqXl-117">
          <mxGeometry x="447.57" y="40" width="30" height="30" as="geometry" />
        </mxCell>
        <mxCell id="hm0Lq8a4BP33cIntfqXl-119" value="" style="edgeStyle=elbowEdgeStyle;elbow=horizontal;verticalAlign=bottom;endArrow=open;endSize=8;strokeColor=#FF0000;endFill=1;rounded=0" edge="1" parent="hm0Lq8a4BP33cIntfqXl-117" source="hm0Lq8a4BP33cIntfqXl-118" target="hm0Lq8a4BP33cIntfqXl-120">
          <mxGeometry x="100" y="40" as="geometry">
            <mxPoint x="462.57" y="110" as="targetPoint" />
          </mxGeometry>
        </mxCell>
        <mxCell id="hm0Lq8a4BP33cIntfqXl-120" value="idle" style="" vertex="1" parent="hm0Lq8a4BP33cIntfqXl-117">
          <mxGeometry x="407.57" y="110" width="110" height="50" as="geometry" />
        </mxCell>
        <mxCell id="hm0Lq8a4BP33cIntfqXl-121" value="" style="endArrow=open;strokeColor=#FF0000;endFill=1;rounded=0;entryX=0.5;entryY=0;entryDx=0;entryDy=0;exitX=0.5;exitY=1;exitDx=0;exitDy=0;" edge="1" parent="hm0Lq8a4BP33cIntfqXl-117" source="hm0Lq8a4BP33cIntfqXl-120" target="hm0Lq8a4BP33cIntfqXl-126">
          <mxGeometry relative="1" as="geometry">
            <mxPoint x="462.57" y="192" as="targetPoint" />
          </mxGeometry>
        </mxCell>
        <mxCell id="hm0Lq8a4BP33cIntfqXl-122" style="edgeStyle=orthogonalEdgeStyle;rounded=0;orthogonalLoop=1;jettySize=auto;html=1;entryX=0;entryY=0.5;entryDx=0;entryDy=0;fontColor=default;fillColor=#e51400;strokeColor=#FF0000;endArrow=none;endFill=0;entryPerimeter=0;exitX=0;exitY=1;exitDx=0;exitDy=0;startArrow=open;startFill=0;" edge="1" parent="hm0Lq8a4BP33cIntfqXl-117" source="hm0Lq8a4BP33cIntfqXl-126" target="hm0Lq8a4BP33cIntfqXl-164">
          <mxGeometry relative="1" as="geometry">
            <mxPoint x="517.5699999999999" y="327" as="sourcePoint" />
            <Array as="points">
              <mxPoint x="226" y="242" />
              <mxPoint x="226" y="305" />
            </Array>
          </mxGeometry>
        </mxCell>
        <mxCell id="hm0Lq8a4BP33cIntfqXl-123" value="" style="edgeStyle=orthogonalEdgeStyle;shape=connector;rounded=0;orthogonalLoop=1;jettySize=auto;html=1;labelBackgroundColor=default;strokeColor=#FF0000;fontFamily=Helvetica;fontSize=11;fontColor=default;endArrow=open;endFill=1;fillColor=#e51400;exitX=0.5;exitY=1;exitDx=0;exitDy=0;entryX=0.5;entryY=0;entryDx=0;entryDy=0;" edge="1" parent="hm0Lq8a4BP33cIntfqXl-117" source="hm0Lq8a4BP33cIntfqXl-135" target="hm0Lq8a4BP33cIntfqXl-170">
          <mxGeometry relative="1" as="geometry">
            <mxPoint x="462.57" y="352" as="sourcePoint" />
            <mxPoint x="462.5699999999997" y="402" as="targetPoint" />
          </mxGeometry>
        </mxCell>
        <mxCell id="hm0Lq8a4BP33cIntfqXl-124" value="" style="endArrow=open;strokeColor=#FF0000;endFill=1;rounded=0;exitX=0.5;exitY=1;exitDx=0;exitDy=0;entryX=0.5;entryY=0;entryDx=0;entryDy=0;" edge="1" parent="hm0Lq8a4BP33cIntfqXl-117" source="hm0Lq8a4BP33cIntfqXl-126" target="hm0Lq8a4BP33cIntfqXl-135">
          <mxGeometry relative="1" as="geometry">
            <mxPoint x="477.57" y="302" as="sourcePoint" />
            <mxPoint x="462.57" y="302" as="targetPoint" />
          </mxGeometry>
        </mxCell>
        <mxCell id="hm0Lq8a4BP33cIntfqXl-125" value="" style="edgeStyle=elbowEdgeStyle;elbow=horizontal;strokeColor=#FF0000;endArrow=open;endFill=1;rounded=0;exitX=0;exitY=0.5;exitDx=0;exitDy=0;" edge="1" parent="hm0Lq8a4BP33cIntfqXl-117" source="hm0Lq8a4BP33cIntfqXl-126" target="hm0Lq8a4BP33cIntfqXl-120">
          <mxGeometry width="100" height="100" relative="1" as="geometry">
            <mxPoint x="507.57" y="290" as="sourcePoint" />
            <mxPoint x="607.5699999999999" y="190" as="targetPoint" />
            <Array as="points">
              <mxPoint x="377.57" y="250" />
            </Array>
          </mxGeometry>
        </mxCell>
        <mxCell id="hm0Lq8a4BP33cIntfqXl-126" value="Charging Requested ?" style="rhombus;whiteSpace=wrap;html=1;fontSize=10;" vertex="1" parent="hm0Lq8a4BP33cIntfqXl-117">
          <mxGeometry x="422.57" y="182" width="80" height="80" as="geometry" />
        </mxCell>
        <mxCell id="hm0Lq8a4BP33cIntfqXl-127" value="No" style="text;html=1;strokeColor=none;fillColor=none;align=center;verticalAlign=middle;whiteSpace=wrap;rounded=0;" vertex="1" parent="hm0Lq8a4BP33cIntfqXl-117">
          <mxGeometry x="367.57" y="192" width="60" height="30" as="geometry" />
        </mxCell>
        <mxCell id="hm0Lq8a4BP33cIntfqXl-128" value="Yes" style="text;html=1;strokeColor=none;fillColor=none;align=center;verticalAlign=middle;whiteSpace=wrap;rounded=0;" vertex="1" parent="hm0Lq8a4BP33cIntfqXl-117">
          <mxGeometry x="447.57" y="262" width="60" height="30" as="geometry" />
        </mxCell>
        <mxCell id="hm0Lq8a4BP33cIntfqXl-129" value="" style="image;html=1;image=img/lib/clip_art/telecommunication/Signal_tower_on_128x128.png" vertex="1" parent="hm0Lq8a4BP33cIntfqXl-117">
          <mxGeometry x="65.49999999999989" y="200" width="80" height="80" as="geometry" />
        </mxCell>
        <mxCell id="hm0Lq8a4BP33cIntfqXl-130" value="802.15.4: 868/915/2450 MHz" style="text;html=1;strokeColor=none;fillColor=none;align=center;verticalAlign=middle;whiteSpace=wrap;rounded=0;fontSize=11;fontFamily=Helvetica;fontColor=default;" vertex="1" parent="hm0Lq8a4BP33cIntfqXl-117">
          <mxGeometry x="65.49999999999989" y="160" width="60" height="30" as="geometry" />
        </mxCell>
        <mxCell id="hm0Lq8a4BP33cIntfqXl-168" style="edgeStyle=orthogonalEdgeStyle;shape=connector;rounded=0;orthogonalLoop=1;jettySize=auto;html=1;entryX=1;entryY=0.75;entryDx=0;entryDy=0;labelBackgroundColor=default;strokeColor=#FF0000;fontFamily=Helvetica;fontSize=11;fontColor=default;endArrow=open;endFill=1;fillColor=#e51400;" edge="1" parent="hm0Lq8a4BP33cIntfqXl-117" source="hm0Lq8a4BP33cIntfqXl-133" target="hm0Lq8a4BP33cIntfqXl-120">
          <mxGeometry relative="1" as="geometry">
            <Array as="points">
              <mxPoint x="538" y="552" />
              <mxPoint x="538" y="148" />
            </Array>
          </mxGeometry>
        </mxCell>
        <mxCell id="hm0Lq8a4BP33cIntfqXl-172" style="edgeStyle=orthogonalEdgeStyle;shape=connector;rounded=0;orthogonalLoop=1;jettySize=auto;html=1;entryX=0.5;entryY=0;entryDx=0;entryDy=0;labelBackgroundColor=default;strokeColor=#FF0000;fontFamily=Helvetica;fontSize=11;fontColor=default;endArrow=open;endFill=1;fillColor=#e51400;" edge="1" parent="hm0Lq8a4BP33cIntfqXl-117" source="hm0Lq8a4BP33cIntfqXl-133" target="hm0Lq8a4BP33cIntfqXl-171">
          <mxGeometry relative="1" as="geometry" />
        </mxCell>
        <mxCell id="hm0Lq8a4BP33cIntfqXl-133" value="Received Handshake message?" style="rhombus;whiteSpace=wrap;html=1;" vertex="1" parent="hm0Lq8a4BP33cIntfqXl-117">
          <mxGeometry x="422.56999999999994" y="512" width="80" height="80" as="geometry" />
        </mxCell>
        <mxCell id="hm0Lq8a4BP33cIntfqXl-134" value="No" style="text;html=1;strokeColor=none;fillColor=none;align=center;verticalAlign=middle;whiteSpace=wrap;rounded=0;" vertex="1" parent="hm0Lq8a4BP33cIntfqXl-117">
          <mxGeometry x="485.5" y="522" width="60" height="30" as="geometry" />
        </mxCell>
        <mxCell id="hm0Lq8a4BP33cIntfqXl-167" style="edgeStyle=orthogonalEdgeStyle;shape=connector;rounded=0;orthogonalLoop=1;jettySize=auto;html=1;entryX=0.25;entryY=0.5;entryDx=0;entryDy=0;entryPerimeter=0;labelBackgroundColor=default;strokeColor=#FF0000;fontFamily=Helvetica;fontSize=11;fontColor=default;endArrow=open;endFill=0;fillColor=#e51400;startArrow=none;startFill=0;" edge="1" parent="hm0Lq8a4BP33cIntfqXl-117" source="hm0Lq8a4BP33cIntfqXl-135" target="hm0Lq8a4BP33cIntfqXl-164">
          <mxGeometry relative="1" as="geometry">
            <Array as="points">
              <mxPoint x="121" y="328" />
            </Array>
          </mxGeometry>
        </mxCell>
        <mxCell id="hm0Lq8a4BP33cIntfqXl-135" value="Send Occupied status" style="shape=parallelogram;perimeter=parallelogramPerimeter;whiteSpace=wrap;html=1;fixedSize=1;fontFamily=Helvetica;fontSize=11;fontColor=default;" vertex="1" parent="hm0Lq8a4BP33cIntfqXl-117">
          <mxGeometry x="417.57" y="312" width="90" height="32" as="geometry" />
        </mxCell>
        <mxCell id="hm0Lq8a4BP33cIntfqXl-139" value="Yes" style="text;html=1;strokeColor=none;fillColor=none;align=center;verticalAlign=middle;whiteSpace=wrap;rounded=0;" vertex="1" parent="hm0Lq8a4BP33cIntfqXl-117">
          <mxGeometry x="402.57" y="592" width="60" height="30" as="geometry" />
        </mxCell>
        <mxCell id="hm0Lq8a4BP33cIntfqXl-140" value="" style="edgeStyle=orthogonalEdgeStyle;shape=connector;rounded=0;orthogonalLoop=1;jettySize=auto;html=1;labelBackgroundColor=default;strokeColor=#FF0000;fontFamily=Helvetica;fontSize=11;fontColor=default;endArrow=open;endFill=1;fillColor=#e51400;entryX=0.5;entryY=0;entryDx=0;entryDy=0;exitX=0.5;exitY=1;exitDx=0;exitDy=0;" edge="1" parent="hm0Lq8a4BP33cIntfqXl-117" source="hm0Lq8a4BP33cIntfqXl-170" target="hm0Lq8a4BP33cIntfqXl-133">
          <mxGeometry relative="1" as="geometry">
            <mxPoint x="462.5699999999997" y="462" as="sourcePoint" />
          </mxGeometry>
        </mxCell>
        <mxCell id="hm0Lq8a4BP33cIntfqXl-144" value="" style="edgeStyle=orthogonalEdgeStyle;shape=connector;rounded=0;orthogonalLoop=1;jettySize=auto;html=1;labelBackgroundColor=default;strokeColor=#FF0000;fontFamily=Helvetica;fontSize=11;fontColor=default;endArrow=open;endFill=1;fillColor=#e51400;exitX=0.5;exitY=1;exitDx=0;exitDy=0;" edge="1" parent="hm0Lq8a4BP33cIntfqXl-117" source="hm0Lq8a4BP33cIntfqXl-171" target="hm0Lq8a4BP33cIntfqXl-150">
          <mxGeometry relative="1" as="geometry">
            <mxPoint x="462.5833333333335" y="741.9866666666662" as="sourcePoint" />
          </mxGeometry>
        </mxCell>
        <mxCell id="hm0Lq8a4BP33cIntfqXl-148" style="edgeStyle=orthogonalEdgeStyle;shape=connector;rounded=0;orthogonalLoop=1;jettySize=auto;html=1;labelBackgroundColor=default;strokeColor=#FF0000;fontFamily=Helvetica;fontSize=11;fontColor=default;endArrow=none;endFill=0;fillColor=#e51400;entryX=0.25;entryY=0.5;entryDx=0;entryDy=0;entryPerimeter=0;startArrow=open;startFill=0;" edge="1" parent="hm0Lq8a4BP33cIntfqXl-117">
          <mxGeometry relative="1" as="geometry">
            <mxPoint x="100.5" y="303.5" as="targetPoint" />
            <mxPoint x="415.5" y="802" as="sourcePoint" />
          </mxGeometry>
        </mxCell>
        <mxCell id="hm0Lq8a4BP33cIntfqXl-149" value="" style="edgeStyle=orthogonalEdgeStyle;shape=connector;rounded=0;orthogonalLoop=1;jettySize=auto;html=1;labelBackgroundColor=default;strokeColor=#FF0000;fontFamily=Helvetica;fontSize=11;fontColor=default;endArrow=open;endFill=1;fillColor=#e51400;" edge="1" parent="hm0Lq8a4BP33cIntfqXl-117" source="hm0Lq8a4BP33cIntfqXl-150" target="hm0Lq8a4BP33cIntfqXl-155">
          <mxGeometry relative="1" as="geometry" />
        </mxCell>
        <mxCell id="hm0Lq8a4BP33cIntfqXl-150" value="Real-time message" style="shape=parallelogram;perimeter=parallelogramPerimeter;whiteSpace=wrap;html=1;fixedSize=1;" vertex="1" parent="hm0Lq8a4BP33cIntfqXl-117">
          <mxGeometry x="402.57" y="772" width="120" height="60" as="geometry" />
        </mxCell>
        <mxCell id="hm0Lq8a4BP33cIntfqXl-152" style="edgeStyle=orthogonalEdgeStyle;shape=connector;rounded=0;orthogonalLoop=1;jettySize=auto;html=1;entryX=0;entryY=0.5;entryDx=0;entryDy=0;labelBackgroundColor=default;strokeColor=#FF0000;fontFamily=Helvetica;fontSize=11;fontColor=default;endArrow=open;endFill=1;fillColor=#e51400;" edge="1" parent="hm0Lq8a4BP33cIntfqXl-117" source="hm0Lq8a4BP33cIntfqXl-155" target="hm0Lq8a4BP33cIntfqXl-150">
          <mxGeometry relative="1" as="geometry">
            <Array as="points">
              <mxPoint x="387.57" y="926" />
              <mxPoint x="387.57" y="802" />
            </Array>
          </mxGeometry>
        </mxCell>
        <mxCell id="hm0Lq8a4BP33cIntfqXl-154" value="" style="edgeStyle=orthogonalEdgeStyle;shape=connector;rounded=0;orthogonalLoop=1;jettySize=auto;html=1;labelBackgroundColor=default;strokeColor=#FF0000;fontFamily=Helvetica;fontSize=11;fontColor=default;endArrow=open;endFill=1;fillColor=#e51400;" edge="1" parent="hm0Lq8a4BP33cIntfqXl-117" source="hm0Lq8a4BP33cIntfqXl-155" target="hm0Lq8a4BP33cIntfqXl-161">
          <mxGeometry relative="1" as="geometry" />
        </mxCell>
        <mxCell id="hm0Lq8a4BP33cIntfqXl-155" value="&amp;lt; 100 ms?" style="rhombus;whiteSpace=wrap;html=1;" vertex="1" parent="hm0Lq8a4BP33cIntfqXl-117">
          <mxGeometry x="392.57" y="862" width="140" height="128" as="geometry" />
        </mxCell>
        <mxCell id="hm0Lq8a4BP33cIntfqXl-156" value="Yes" style="text;html=1;strokeColor=none;fillColor=none;align=center;verticalAlign=middle;whiteSpace=wrap;rounded=0;" vertex="1" parent="hm0Lq8a4BP33cIntfqXl-117">
          <mxGeometry x="377.57" y="852" width="60" height="28" as="geometry" />
        </mxCell>
        <mxCell id="hm0Lq8a4BP33cIntfqXl-173" style="edgeStyle=orthogonalEdgeStyle;shape=connector;rounded=0;orthogonalLoop=1;jettySize=auto;html=1;entryX=1;entryY=0.25;entryDx=0;entryDy=0;labelBackgroundColor=default;strokeColor=#FF0000;fontFamily=Helvetica;fontSize=11;fontColor=default;endArrow=open;endFill=1;fillColor=#e51400;" edge="1" parent="hm0Lq8a4BP33cIntfqXl-117" source="hm0Lq8a4BP33cIntfqXl-161" target="hm0Lq8a4BP33cIntfqXl-120">
          <mxGeometry relative="1" as="geometry">
            <Array as="points">
              <mxPoint x="576" y="1062" />
              <mxPoint x="576" y="123" />
            </Array>
          </mxGeometry>
        </mxCell>
        <mxCell id="hm0Lq8a4BP33cIntfqXl-161" value="Error. End of session" style="whiteSpace=wrap;html=1;" vertex="1" parent="hm0Lq8a4BP33cIntfqXl-117">
          <mxGeometry x="402.57" y="1032" width="120" height="60" as="geometry" />
        </mxCell>
        <mxCell id="hm0Lq8a4BP33cIntfqXl-162" value="&amp;lt; 100 ms" style="text;html=1;strokeColor=none;fillColor=none;align=center;verticalAlign=middle;whiteSpace=wrap;rounded=0;fontSize=11;fontFamily=Helvetica;fontColor=default;" vertex="1" parent="hm0Lq8a4BP33cIntfqXl-117">
          <mxGeometry x="472.57" y="992" width="60" height="30" as="geometry" />
        </mxCell>
        <mxCell id="hm0Lq8a4BP33cIntfqXl-163" style="edgeStyle=orthogonalEdgeStyle;shape=connector;rounded=0;orthogonalLoop=1;jettySize=auto;html=1;entryX=0.531;entryY=1;entryDx=0;entryDy=0;entryPerimeter=0;labelBackgroundColor=default;strokeColor=#FF0000;fontFamily=Helvetica;fontSize=11;fontColor=default;endArrow=open;endFill=0;fillColor=#e51400;exitX=0.512;exitY=0.515;exitDx=0;exitDy=0;exitPerimeter=0;startArrow=open;startFill=0;" edge="1" parent="hm0Lq8a4BP33cIntfqXl-117" source="hm0Lq8a4BP33cIntfqXl-164" target="hm0Lq8a4BP33cIntfqXl-129">
          <mxGeometry relative="1" as="geometry" />
        </mxCell>
        <mxCell id="hm0Lq8a4BP33cIntfqXl-164" value="" style="shape=line;strokeWidth=6;strokeColor=#ff0000;rotation=90;direction=south;" vertex="1" parent="hm0Lq8a4BP33cIntfqXl-117">
          <mxGeometry x="100.49999999999989" y="280" width="15" height="50" as="geometry" />
        </mxCell>
        <mxCell id="hm0Lq8a4BP33cIntfqXl-174" style="edgeStyle=orthogonalEdgeStyle;shape=connector;rounded=0;orthogonalLoop=1;jettySize=auto;html=1;entryX=0.25;entryY=0.5;entryDx=0;entryDy=0;entryPerimeter=0;labelBackgroundColor=default;strokeColor=#FF0000;fontFamily=Helvetica;fontSize=11;fontColor=default;endArrow=open;endFill=1;fillColor=#e51400;startArrow=open;startFill=0;" edge="1" parent="hm0Lq8a4BP33cIntfqXl-117" source="hm0Lq8a4BP33cIntfqXl-170" target="hm0Lq8a4BP33cIntfqXl-164">
          <mxGeometry relative="1" as="geometry" />
        </mxCell>
        <mxCell id="hm0Lq8a4BP33cIntfqXl-170" value="Establish and Handshake" style="rounded=0;whiteSpace=wrap;html=1;fontFamily=Helvetica;fontSize=11;fontColor=default;" vertex="1" parent="hm0Lq8a4BP33cIntfqXl-117">
          <mxGeometry x="402.57000000000005" y="402" width="120" height="60" as="geometry" />
        </mxCell>
        <mxCell id="hm0Lq8a4BP33cIntfqXl-171" value="Start charging" style="rounded=0;whiteSpace=wrap;html=1;fontFamily=Helvetica;fontSize=11;fontColor=default;" vertex="1" parent="hm0Lq8a4BP33cIntfqXl-117">
          <mxGeometry x="402.57000000000005" y="622" width="120" height="60" as="geometry" />
        </mxCell>
      </root>
    </mxGraphModel>
  </diagram>
</mxfile>
